<?xml version="1.0" encoding="utf-8"?>
<svg version="1.1" xmlns:xlink="http://www.w3.org/1999/xlink" width="262px" height="90px" xmlns="http://www.w3.org/2000/svg">
  <defs>
    <mask fill="white" id="clip13">
      <path d="M 0 75  L 0 15  C 0 6.60000000000002  6.60000000000002 0  15 0  L 247 0  C 255.4 0  262 6.60000000000002  262 15  L 262 48.6274509803928  L 262 75  C 262 83.4  255.4 90  247 90  L 15 90  C 6.60000000000002 90  0 83.4  0 75  Z " fill-rule="evenodd" />
    </mask>
  </defs>
  <g transform="matrix(1 0 0 1 -319 -540 )">
    <path d="M 0 75  L 0 15  C 0 6.60000000000002  6.60000000000002 0  15 0  L 247 0  C 255.4 0  262 6.60000000000002  262 15  L 262 48.6274509803928  L 262 75  C 262 83.4  255.4 90  247 90  L 15 90  C 6.60000000000002 90  0 83.4  0 75  Z " fill-rule="nonzero" fill="#ffffff" stroke="none" transform="matrix(1 0 0 1 319 540 )" />
    <path d="M 0 75  L 0 15  C 0 6.60000000000002  6.60000000000002 0  15 0  L 247 0  C 255.4 0  262 6.60000000000002  262 15  L 262 48.6274509803928  L 262 75  C 262 83.4  255.4 90  247 90  L 15 90  C 6.60000000000002 90  0 83.4  0 75  Z " stroke-width="2" stroke="#797979" fill="none" transform="matrix(1 0 0 1 319 540 )" mask="url(#clip13)" />
  </g>
</svg>